<svg width="31" height="24" viewBox="0 0 31 24" fill="none" xmlns="http://www.w3.org/2000/svg">
<path d="M23.8577 19.3838L30.3787 6.96248H6.92227L3.27017 0H0L10.1723 19.3838H23.8577Z" fill="white"/>
<path d="M13.9246 24C14.4272 24 14.8276 23.8191 15.1685 23.479C15.5094 23.1372 15.6896 22.7167 15.6896 22.2351C15.6896 21.7333 15.5094 21.312 15.1685 20.9703C14.8268 20.6293 14.4264 20.4492 13.9246 20.4492C13.4237 20.4492 13.0015 20.6301 12.6614 20.9703C12.3197 21.312 12.1597 21.7333 12.1597 22.2351C12.1597 22.7167 12.3197 23.1372 12.6614 23.479C13.0007 23.8191 13.4237 24 13.9246 24Z" fill="white"/>
<path d="M20.2457 24C19.7448 24 19.3428 23.8191 19.001 23.479C18.6601 23.1372 18.48 22.7167 18.48 22.2351C18.48 21.7333 18.6609 21.312 19.001 20.9703C19.3428 20.6293 19.7448 20.4492 20.2457 20.4492C20.7475 20.4492 21.168 20.6301 21.5097 20.9703C21.8515 21.312 22.0123 21.7333 22.0123 22.2351C22.0123 22.7167 21.8515 23.1372 21.5097 23.479C21.168 23.8191 20.7475 24 20.2457 24Z" fill="white"/>
</svg>
