<svg width="14" height="15" viewBox="0 0 14 15" fill="none" xmlns="http://www.w3.org/2000/svg">
<path d="M8 4.14286C8 3.98214 7.875 3.85714 7.71429 3.85714H7.14286C6.98214 3.85714 6.85714 3.98214 6.85714 4.14286V7.28571H4.85714C4.69643 7.28571 4.57143 7.41071 4.57143 7.57143V8.14286C4.57143 8.30357 4.69643 8.42857 4.85714 8.42857H7.71429C7.875 8.42857 8 8.30357 8 8.14286V4.14286ZM11.7143 7.28571C11.7143 9.96429 9.53572 12.1429 6.85714 12.1429C4.17857 12.1429 2 9.96429 2 7.28571C2 4.60714 4.17857 2.42857 6.85714 2.42857C9.53572 2.42857 11.7143 4.60714 11.7143 7.28571ZM13.7143 7.28571C13.7143 3.5 10.6429 0.428571 6.85714 0.428571C3.07143 0.428571 0 3.5 0 7.28571C0 11.0714 3.07143 14.1429 6.85714 14.1429C10.6429 14.1429 13.7143 11.0714 13.7143 7.28571Z" fill="#FE8A00"/>
</svg>
