<svg width="10" height="15" viewBox="0 0 10 15" fill="none" xmlns="http://www.w3.org/2000/svg">
<path d="M6.85714 5C6.85714 6.25893 5.83036 7.28571 4.57143 7.28571C3.3125 7.28571 2.28571 6.25893 2.28571 5C2.28571 3.74107 3.3125 2.71428 4.57143 2.71428C5.83036 2.71428 6.85714 3.74107 6.85714 5ZM9.14286 5C9.14286 2.47321 7.09821 0.428571 4.57143 0.428571C2.04464 0.428571 0 2.47321 0 5C0 5.54464 0.0625 6.10714 0.294643 6.59821L3.55357 13.5089C3.73214 13.9018 4.14286 14.1429 4.57143 14.1429C5 14.1429 5.41071 13.9018 5.59821 13.5089L8.84822 6.59821C9.08036 6.10714 9.14286 5.54464 9.14286 5Z" fill="#FE8A00"/>
</svg>
