<svg width="70" height="48" viewBox="0 0 70 48" fill="none" xmlns="http://www.w3.org/2000/svg">
<path d="M46.3057 47.5831H0V0H46.3057V16.2803H44.159V2.20586H2.14439V45.3773H44.159V31.1965H46.3057V47.5831Z" fill="#B22222"/>
<path d="M9.45947 18.9052H11.6106V23.118L14.6888 18.9052H17.2697L13.7347 23.3677L17.551 28.5748H14.8238L11.6106 23.9735V28.5748H9.45947V18.9052Z" fill="#B22222"/>
<path d="M23.1609 26.5815C24.8958 26.5815 25.7958 25.3214 25.7958 23.7398C25.7958 22.0241 24.6347 20.898 23.1609 20.898C21.6488 20.898 20.5282 22.0241 20.5282 23.7398C20.5282 25.3468 21.7005 26.5815 23.1609 26.5815ZM23.1609 18.8887C25.9398 18.8887 28.0145 20.75 28.0145 23.7398C28.0145 26.5815 25.9398 28.5909 23.1609 28.5909C20.3842 28.5909 18.3096 26.7272 18.3096 23.7398C18.3096 21.0183 20.2537 18.8887 23.1609 18.8887Z" fill="#B22222"/>
<path d="M37.0595 28.5742L32.5975 22.7727V28.5742H30.5791V18.9067H32.3005L36.7647 24.7335L36.7602 18.9067H38.7763L38.7808 28.5742H37.0595Z" fill="#B22222"/>
<path d="M41.3691 18.9052H49.1659V20.9769H46.342V28.5748H44.1908V20.9769H41.3691V18.9052Z" fill="#B22222"/>
<path d="M59.5992 24.4149C59.5992 27.3698 57.7721 28.5722 55.756 28.5722C53.3371 28.5722 51.6562 27.1502 51.6562 24.3178V18.9095H53.8074V23.8484C53.8074 25.3536 54.2506 26.5005 55.756 26.5005C57.0588 26.5005 57.448 25.5201 57.448 23.9732V18.9095H59.5992V24.4149Z" fill="#B22222"/>
<path d="M64.3362 21.009V23.1501H65.1148C65.9361 23.1501 66.5796 22.8449 66.5796 22.031C66.5796 21.4923 66.3141 21.0067 65.279 21.0067C64.955 21.0067 64.7795 20.9951 64.3362 21.009ZM62.1851 28.5722V18.9095C62.7093 18.9095 65.1148 18.9095 65.3848 18.9095C67.9522 18.9095 68.8658 20.2206 68.8658 22.0033C68.8658 23.7975 67.7902 24.5305 67.2794 24.7941L69.9998 28.5722H67.3919L65.1283 25.2218H64.3362V28.5722H62.1851Z" fill="#B22222"/>
</svg>
